Coordinates
version=1
nRows=4
nColumns=107
inDegrees=yes

Units are S.I. units (second, meters, Newtons, ...)
If the header above contains a line with 'inDegrees', this indicates whether rotational values are in degrees (yes) or radians (no).

endheader
time	sternoclavicular_r2	sternoclavicular_r3	unrotscap_r3	unrotscap_r2	acromioclavicular_r2	acromioclavicular_r3	acromioclavicular_r1	unrothum_r1	unrothum_r3	unrothum_r2	elv_angle	shoulder_elv	shoulder1_r2	shoulder_rot	elbow_flexion	pro_sup	deviation	flexion	proximal_distal_r1	proximal_distal_r3	cmc_flexion	cmc_abduction	mp_flexion	ip_flexion	mcp2_flexion	mcp2_abduction	pm2_flexion	md2_flexion	mcp3_flexion	mcp3_abduction	pm3_flexion	md3_flexion	mcp4_flexion	mcp4_abduction	pm4_flexion	md4_flexion	mcp5_flexion	mcp5_abduction	pm5_flexion	md5_flexion	bicpt_tx	bicpt_ty	bicpt_tz	bicpt2_tx	bicpt2_ty	bicpt2_tz	ptpt_tx	ptpt_ty	ptpt_tz	FCUpt_tx	FCUpt_ty	FCUpt_tz	EDCpt_tx	EDCpt_ty	EDCpt_tz	APLpt_tx	APLpt_ty	APLpt_tz	FPLpt_tx	FPLpt_ty	FPLpt_tz	FPLpt2_tx	FPLpt2_ty	FPLpt2_tz	PEC1pt2_tx	PEC1pt2_ty	PEC1pt2_tz	PEC1pt3_tx	PEC1pt3_ty	PEC1pt3_tz	PEC2pt2_tx	PEC2pt2_ty	PEC2pt2_tz	PEC2pt3_tx	PEC2pt3_ty	PEC2pt3_tz	PEC3pt2_tx	PEC3pt2_ty	PEC3pt2_tz	PEC3pt3_tx	PEC3pt3_ty	PEC3pt3_tz	DELT2pt2a_tx	DELT2pt2a_ty	DELT2pt2a_tz	DELT2pt2_tx	DELT2pt2_ty	DELT2pt2_tz	LAT1pt2_tx	LAT1pt2_ty	LAT1pt2_tz	LAT1pt3_tx	LAT1pt3_ty	LAT1pt3_tz	LAT2pt2_tx	LAT2pt2_ty	LAT2pt2_tz	LAT2pt3_tx	LAT2pt3_ty	LAT2pt3_tz	LAT3pt2_tx	LAT3pt2_ty	LAT3pt2_tz	LAT3pt3_tx	LAT3pt3_ty	LAT3pt3_tz
      1.00000000	     -0.31654510	      0.13407357	     -0.13407357	      0.31654510	     -0.06409394	      0.51798471	      0.23283056	     -0.23283056	     -0.51798471	      0.06409394	    101.51515986	     74.94486679	     -1.77177378	    -35.68266578	     30.19103141	     86.40822276	      0.36639880	     -0.42094278	      0.38737200	     -0.21047139	     37.55193253	    -20.57945348	      6.23733832	      1.37442752	     74.76809373	      8.55893502	     76.93196205	     58.13676939	     78.33554338	     -2.23235173	     80.93555802	     47.96515271	     68.35088422	    -12.20070943	     91.80536239	     40.30220694	     61.57937702	    -13.81221130	     88.25093839	      5.54243962	      0.00089863	     -0.03106035	     -0.00485737	      0.01419752	     -0.01840154	     -0.00100602	      0.00116541	     -0.06902838	     -0.00701065	      0.01278492	     -0.18222389	      0.00009510	     -0.01036896	      0.00360044	     -0.00077037	      0.00028230	      0.00011292	      0.00056459	      0.00036134	      0.00108402	      0.00060976	     -0.00001249	     -0.00015539	     -0.00018646	      0.00245653	      0.00861867	      0.00599559	     -0.00803576	      0.01940241	     -0.01840314	      0.00245653	      0.00861867	      0.00599559	      0.00054127	      0.01798678	     -0.00945139	      0.00390140	      0.00479273	      0.01585275	      0.00000000	      0.00750995	      0.00000000	     -0.00703650	     -0.03251777	     -0.00619075	      0.02118117	     -0.00095533	     -0.01045101	     -0.00087436	      0.01465590	     -0.00599559	      0.00241489	      0.02115112	     -0.01748715	     -0.00587069	      0.01269900	     -0.00537105	     -0.01224101	      0.02681363	     -0.03001961	     -0.02298311	      0.01419790	     -0.00720304	     -0.01523880	      0.03097724	     -0.03751410
      1.03333333	     -0.31635804	      0.13399433	     -0.13399433	      0.31635804	     -0.06405607	      0.51767860	      0.23269297	     -0.23269297	     -0.51767860	      0.06405607	    101.48601709	     74.90057730	     -1.77126514	    -35.72538990	     30.34232317	     86.98012270	      0.37139923	     -0.38843937	      0.39113908	     -0.19421969	     36.76563672	    -20.29484419	      5.20174220	      1.56946154	     69.44114638	      8.57700071	     72.39643978	     53.27842328	     72.86465676	     -2.05822060	     78.11618497	     44.06698987	     63.68872337	    -12.12968303	     87.32940502	     39.73242369	     57.28828536	    -13.85126260	     82.92897934	      5.51810440	      0.00090363	     -0.03107769	     -0.00486017	      0.01413750	     -0.01844264	     -0.00090752	      0.00112315	     -0.06905571	     -0.00705672	      0.01285074	     -0.18220441	      0.00011115	     -0.01043759	      0.00363195	     -0.00078895	      0.00027107	      0.00010843	      0.00054215	      0.00034697	      0.00104092	      0.00058552	     -0.00001276	     -0.00016819	     -0.00020183	      0.00245508	      0.00861357	      0.00599205	     -0.00803101	      0.01939094	     -0.01839227	      0.00245508	      0.00861357	      0.00599205	      0.00054095	      0.01797615	     -0.00944580	      0.00389971	      0.00478990	      0.01584852	      0.00000000	      0.00750102	      0.00000000	     -0.00703234	     -0.03249856	     -0.00618333	      0.02119689	     -0.00095685	     -0.01047450	     -0.00087384	      0.01464724	     -0.00599205	      0.00241347	      0.02113863	     -0.01747682	     -0.00586722	      0.01269150	     -0.00536788	     -0.01223377	      0.02679778	     -0.03000187	     -0.02296953	      0.01418951	     -0.00719878	     -0.01522980	      0.03095893	     -0.03749193
      1.06666667	     -0.31603696	      0.13385834	     -0.13385834	      0.31603696	     -0.06399106	      0.51715320	      0.23245680	     -0.23245680	     -0.51715320	      0.06399106	    101.63485382	     74.82455885	     -1.77386283	    -36.18974670	     30.19647473	     87.29638099	      0.36870402	     -0.38854803	      0.38911325	     -0.19427402	     36.20208053	    -19.86192144	      3.94786502	      0.82941646	     64.00432571	      8.26189632	     65.46374526	     50.15619137	     66.79658883	     -1.97825265	     73.57322791	     42.42192021	     58.08567154	    -12.01107211	     82.08938595	     38.21739097	     51.71082774	    -13.89801354	     77.76992635	      5.38933563	      0.00089881	     -0.03106098	     -0.00485747	      0.01410398	     -0.01840302	     -0.00085286	      0.00109978	     -0.06907082	     -0.00708219	      0.01288718	     -0.18219360	      0.00012014	     -0.01047554	      0.00364941	     -0.00079930	      0.00027112	      0.00010845	      0.00054224	      0.00034704	      0.00104111	      0.00058562	     -0.00001284	     -0.00017695	     -0.00021234	      0.00245258	      0.00860483	      0.00598597	     -0.00802286	      0.01937126	     -0.01837360	      0.00245258	      0.00860483	      0.00598597	      0.00054040	      0.01795791	     -0.00943622	      0.00389679	      0.00478504	      0.01584125	      0.00000000	      0.00748570	      0.00000000	     -0.00702520	     -0.03246557	     -0.00617061	      0.02136570	     -0.00097340	     -0.01073126	     -0.00087295	      0.01463237	     -0.00598597	      0.00241102	      0.02111717	     -0.01745908	     -0.00586126	      0.01267862	     -0.00536243	     -0.01222135	      0.02677059	     -0.02997142	     -0.02294622	      0.01417511	     -0.00719148	     -0.01521434	      0.03092751	     -0.03745388
      1.10000000	     -0.31588617	      0.13379447	     -0.13379447	      0.31588617	     -0.06396052	      0.51690646	      0.23234590	     -0.23234590	     -0.51690646	      0.06396052	    101.55352651	     74.78885943	     -1.77244340	    -35.99061967	     30.43055960	     87.63445084	      0.38247308	     -0.32598138	      0.39933467	     -0.16299069	     34.59648061	    -19.23644116	      3.91679295	      0.86698210	     58.39930710	      7.60264087	     56.59026769	     41.75051611	     59.87969925	     -2.07404773	     67.55368038	     38.89914129	     51.64599666	    -11.91592914	     74.91189774	     36.39550110	     46.02950296	    -13.91863577	     67.54410565	      5.47736999	      0.00090655	     -0.03108781	     -0.00486179	      0.01406790	     -0.01846661	     -0.00079427	      0.00107480	     -0.06908697	     -0.00710943	      0.01292617	     -0.18218201	      0.00012982	     -0.01051611	      0.00366812	     -0.00081042	      0.00024455	      0.00009782	      0.00048910	      0.00031303	      0.00093908	      0.00052823	     -0.00001260	     -0.00019996	     -0.00023995	      0.00245141	      0.00860073	      0.00598311	     -0.00801903	      0.01936202	     -0.01836484	      0.00245141	      0.00860073	      0.00598311	      0.00054014	      0.01794934	     -0.00943171	      0.00389542	      0.00478275	      0.01583783	      0.00000000	      0.00747851	      0.00000000	     -0.00702185	     -0.03245008	     -0.00616464	      0.02129388	     -0.00096630	     -0.01062073	     -0.00087254	      0.01462539	     -0.00598311	      0.00240987	      0.02110710	     -0.01745075	     -0.00585847	      0.01267257	     -0.00535987	     -0.01221552	      0.02675781	     -0.02995712	     -0.02293527	      0.01416835	     -0.00718805	     -0.01520708	      0.03091275	     -0.03743601
